<svg width="128" height="128" version="1.1" xmlns="http://www.w3.org/2000/svg" desc="Created with imagetracer.js version 1.2.6" ><path fill="rgb(0,0,0)" stroke="rgb(0,0,0)" stroke-width="1" opacity="0.8235294117647058" d="M 57.5 0 L 61 0.5 L 57.5 1 L 57.5 0 Z " /><path fill="rgb(0,0,0)" stroke="rgb(0,0,0)" stroke-width="1" opacity="0.8235294117647058" d="M 67.5 0 L 71 0.5 L 67.5 1 L 67.5 0 Z " /><path fill="rgb(0,0,0)" stroke="rgb(0,0,0)" stroke-width="1" opacity="0.8235294117647058" d="M 100.5 11 L 101.5 13 L 100.5 11 Z " /><path fill="rgb(0,0,0)" stroke="rgb(0,0,0)" stroke-width="1" opacity="0.8235294117647058" d="M 22.5 15 L 15.5 23 L 22.5 15 Z " /><path fill="rgb(0,0,0)" stroke="rgb(0,0,0)" stroke-width="1" opacity="0.8235294117647058" d="M 105.5 15 L 112.5 23 L 105.5 15 Z " /><path fill="rgb(0,0,0)" stroke="rgb(0,0,0)" stroke-width="1" opacity="0.8235294117647058" d="M 67.5 22 L 70 22.5 L 67.5 23 L 67.5 22 Z " /><path fill="rgb(0,0,0)" stroke="rgb(0,0,0)" stroke-width="1" opacity="0.8235294117647058" d="M 43.5 29 L 39.5 34 L 43.5 29 Z " /><path fill="rgb(0,0,0)" stroke="rgb(0,0,0)" stroke-width="1" opacity="0.8235294117647058" d="M 84.5 29 L 88.5 34 L 84.5 29 Z " /><path fill="rgb(0,0,0)" stroke="rgb(0,0,0)" stroke-width="1" opacity="0.8235294117647058" d="M 57.5 43 L 54.5 47 L 57.5 43 Z " /><path fill="rgb(0,0,0)" stroke="rgb(0,0,0)" stroke-width="1" opacity="0.8235294117647058" d="M 70.5 43 L 73.5 47 L 70.5 43 Z " /><path fill="rgb(0,0,0)" stroke="rgb(0,0,0)" stroke-width="1" opacity="0.8235294117647058" d="M 0.5 57 L 1 60.5 L 0 60.5 L 0.5 57 Z " /><path fill="rgb(0,0,0)" stroke="rgb(0,0,0)" stroke-width="1" opacity="0.8235294117647058" d="M 127.5 57 L 128 60.5 L 127 60.5 L 127.5 57 Z " /><path fill="rgb(0,0,0)" stroke="rgb(0,0,0)" stroke-width="1" opacity="0.8235294117647058" d="M 54.5 60 L 56.5 63 L 54.5 60 Z " /><path fill="rgb(0,0,0)" stroke="rgb(0,0,0)" stroke-width="1" opacity="0.8235294117647058" d="M 73.5 60 L 71.5 63 L 73.5 60 Z " /><path fill="rgb(0,0,0)" stroke="rgb(0,0,0)" stroke-width="1" opacity="0.8235294117647058" d="M 0.5 67 L 1 70.5 L 0 70.5 L 0.5 67 Z " /><path fill="rgb(0,0,0)" stroke="rgb(0,0,0)" stroke-width="1" opacity="0.8235294117647058" d="M 127.5 67 L 128 70.5 L 127 70.5 L 127.5 67 Z " /><path fill="rgb(0,0,0)" stroke="rgb(0,0,0)" stroke-width="1" opacity="0.8235294117647058" d="M 41.5 77 L 42.5 79 L 41.5 77 Z " /><path fill="rgb(0,0,0)" stroke="rgb(0,0,0)" stroke-width="1" opacity="0.8235294117647058" d="M 43.5 80 L 44.5 82 L 43.5 80 Z " /><path fill="rgb(0,0,0)" stroke="rgb(0,0,0)" stroke-width="1" opacity="0.8235294117647058" d="M 84.5 80 L 83.5 82 L 84.5 80 Z " /><path fill="rgb(0,0,0)" stroke="rgb(0,0,0)" stroke-width="1" opacity="0.8235294117647058" d="M 48.5 87 L 49.5 89 L 48.5 87 Z " /><path fill="rgb(0,0,0)" stroke="rgb(0,0,0)" stroke-width="1" opacity="0.8235294117647058" d="M 79.5 87 L 78.5 89 L 79.5 87 Z " /><path fill="rgb(0,0,0)" stroke="rgb(0,0,0)" stroke-width="1" opacity="0.8235294117647058" d="M 52.5 92 L 53.5 94 L 52.5 92 Z " /><path fill="rgb(0,0,0)" stroke="rgb(0,0,0)" stroke-width="1" opacity="0.8235294117647058" d="M 75.5 92 L 74.5 94 L 75.5 92 Z " /><path fill="rgb(0,0,0)" stroke="rgb(0,0,0)" stroke-width="1" opacity="0.8235294117647058" d="M 56.5 97 L 58.5 100 L 56.5 97 Z " /><path fill="rgb(0,0,0)" stroke="rgb(0,0,0)" stroke-width="1" opacity="0.8235294117647058" d="M 71.5 97 L 69.5 100 L 71.5 97 Z " /><path fill="rgb(0,0,0)" stroke="rgb(0,0,0)" stroke-width="1" opacity="0.8235294117647058" d="M 62.5 104 L 64.5 105 L 66 104.5 L 63.5 106 L 62.5 104 Z " /><path fill="rgb(0,0,0)" stroke="rgb(0,0,0)" stroke-width="1" opacity="0.8235294117647058" d="M 15.5 105 L 22.5 113 L 15.5 105 Z " /><path fill="rgb(0,0,0)" stroke="rgb(0,0,0)" stroke-width="1" opacity="0.8235294117647058" d="M 112.5 105 L 105.5 113 L 112.5 105 Z " /><path fill="rgb(0,0,0)" stroke="rgb(0,0,0)" stroke-width="1" opacity="0.8235294117647058" d="M 25.5 114 L 26.5 116 L 25.5 114 Z " /><path fill="rgb(0,0,0)" stroke="rgb(0,0,0)" stroke-width="1" opacity="0.8235294117647058" d="M 57.5 127 L 61 127.5 L 57.5 128 L 57.5 127 Z " /><path fill="rgb(0,0,0)" stroke="rgb(0,0,0)" stroke-width="1" opacity="0.8235294117647058" d="M 67.5 127 L 71 127.5 L 67.5 128 L 67.5 127 Z " /><path fill="rgb(0,0,0)" stroke="rgb(0,0,0)" stroke-width="1" opacity="0" d="M 0 0 L 54 0.5 Q 25.6 5.6 12 25.5 Q 3.2 36.7 0.5 54 L 0 0 Z " /><path fill="rgb(0,0,0)" stroke="rgb(0,0,0)" stroke-width="1" opacity="0" d="M 74.5 0 L 128 0 L 128 53.5 L 127 53.5 L 126 45.5 L 121 33.5 Q 114.2 21.4 103.5 13 L 90.5 5 Q 84.1 1.4 74.5 1 L 74.5 0 Z " /><path fill="rgb(0,0,0)" stroke="rgb(0,0,0)" stroke-width="1" opacity="0" d="M 57.5 23 Q 80.5 21.5 89 34.5 Q 96.4 42.1 95 58.5 L 88 74.5 L 65 105 Q 62.3 106.1 63 103.5 Q 49.8 90.7 40 74.5 L 34 62.5 L 33 47.5 Q 36 35.5 44.5 29 L 57.5 23 Z M 62 41 L 58 43 L 52 50 Q 51 56 53 60 L 62 66 Q 68 67 71 64 L 76 58 Q 77 51 75 48 L 67 41 L 62 41 Z " /><path fill="rgb(0,0,0)" stroke="rgb(0,0,0)" stroke-width="1" opacity="0" d="M 0.5 74 Q 5.4 101.6 24.5 115 Q 35.8 124.8 54 127.5 L 0 128 L 0.5 74 Z " /><path fill="rgb(0,0,0)" stroke="rgb(0,0,0)" stroke-width="1" opacity="0" d="M 127.5 74 L 128 128 L 74 127.5 Q 101.6 122.6 115 103.5 Q 124.8 92.3 127.5 74 Z " /><path fill="rgb(0,0,0)" stroke="rgb(0,0,0)" stroke-width="1" opacity="0.996078431372549" d="M 102.5 13 L 103.5 15 L 102.5 13 Z " /><path fill="rgb(0,0,0)" stroke="rgb(0,0,0)" stroke-width="1" opacity="0.996078431372549" d="M 113.5 24 L 114.5 26 L 113.5 24 Z " /><path fill="rgb(0,0,0)" stroke="rgb(0,0,0)" stroke-width="1" opacity="0.996078431372549" d="M 52.5 52 L 53 54.5 L 52 54.5 L 52.5 52 Z " /><path fill="rgb(0,0,0)" stroke="rgb(0,0,0)" stroke-width="1" opacity="0.996078431372549" d="M 75.5 52 L 76 54.5 L 75 54.5 L 75.5 52 Z " /><path fill="rgb(0,0,0)" stroke="rgb(0,0,0)" stroke-width="1" opacity="0.996078431372549" d="M 0.5 61 L 1 66.5 L 0 66.5 L 0.5 61 Z " /><path fill="rgb(0,0,0)" stroke="rgb(0,0,0)" stroke-width="1" opacity="0.996078431372549" d="M 127.5 61 L 128 66.5 L 127 66.5 L 127.5 61 Z " /><path fill="rgb(0,0,0)" stroke="rgb(0,0,0)" stroke-width="1" opacity="0.996078431372549" d="M 50.5 90 L 51.5 92 L 50.5 90 Z " /><path fill="rgb(0,0,0)" stroke="rgb(0,0,0)" stroke-width="1" opacity="0.996078431372549" d="M 77.5 90 L 76.5 92 L 77.5 90 Z " /><path fill="rgb(0,0,0)" stroke="rgb(0,0,0)" stroke-width="1" opacity="0.996078431372549" d="M 54.5 95 L 55.5 97 L 54.5 95 Z " /><path fill="rgb(0,0,0)" stroke="rgb(0,0,0)" stroke-width="1" opacity="0.996078431372549" d="M 73.5 95 L 72.5 97 L 73.5 95 Z " /><path fill="rgb(0,0,0)" stroke="rgb(0,0,0)" stroke-width="1" opacity="0.996078431372549" d="M 59.5 101 L 61.5 104 L 59.5 101 Z " /><path fill="rgb(0,0,0)" stroke="rgb(0,0,0)" stroke-width="1" opacity="0.996078431372549" d="M 68.5 101 L 66.5 104 L 68.5 101 Z " /><path fill="rgb(0,0,0)" stroke="rgb(0,0,0)" stroke-width="1" opacity="0.996078431372549" d="M 13.5 102 L 14.5 104 L 13.5 102 Z " /><path fill="rgb(0,0,0)" stroke="rgb(0,0,0)" stroke-width="1" opacity="0.996078431372549" d="M 114.5 102 L 113.5 104 L 114.5 102 Z " /><path fill="rgb(0,0,0)" stroke="rgb(0,0,0)" stroke-width="1" opacity="0.996078431372549" d="M 103.5 113 L 102.5 115 L 103.5 113 Z " /><path fill="rgb(0,0,0)" stroke="rgb(0,0,0)" stroke-width="1" opacity="1" d="M 63.5 0 L 79.5 2 L 90.5 6 Q 103.9 12.6 113 23.5 Q 121.9 33.6 126 48.5 L 127 53.5 L 127 74.5 Q 121.7 99.7 104.5 113 Q 96.6 120.1 85.5 124 L 74.5 127 Q 67 125.5 63.5 128 L 62.5 127 L 48.5 126 L 37.5 122 Q 24.1 115.4 15 104.5 Q 6.1 94.4 2 79.5 L 1 74.5 L 1 53.5 Q 6.5 27.5 24.5 14 L 42.5 4 L 53.5 1 L 62.5 1 L 63.5 0 Z M 58 22 L 45 28 Q 35 35 32 48 L 33 63 L 39 75 L 59 102 L 65 106 Q 78 92 89 75 L 96 59 L 96 48 L 90 35 Q 81 21 58 22 Z " /><path fill="rgb(0,0,0)" stroke="rgb(0,0,0)" stroke-width="1" opacity="1" d="M 61.5 42 L 66.5 42 L 74 47.5 Q 76.3 50.7 75 57.5 L 70.5 63 Q 67.8 65.8 61.5 65 L 54 59.5 Q 51.7 56.3 53 49.5 L 57.5 44 L 61.5 42 Z " /><path fill="rgb(0,0,0)" stroke="rgb(0,0,0)" stroke-width="1" opacity="0.32941176470588235" d="M 54.5 0 L 57 0.5 L 54.5 1 L 54.5 0 Z " /><path fill="rgb(0,0,0)" stroke="rgb(0,0,0)" stroke-width="1" opacity="0.32941176470588235" d="M 71.5 0 L 74 0.5 L 71.5 1 L 71.5 0 Z " /><path fill="rgb(0,0,0)" stroke="rgb(0,0,0)" stroke-width="1" opacity="0.32941176470588235" d="M 96.5 8 L 97.5 10 L 96.5 8 Z " /><path fill="rgb(0,0,0)" stroke="rgb(0,0,0)" stroke-width="1" opacity="0.32941176470588235" d="M 28.5 10 L 27.5 12 L 28.5 10 Z " /><path fill="rgb(0,0,0)" stroke="rgb(0,0,0)" stroke-width="1" opacity="0.32941176470588235" d="M 25.5 12 L 23.5 15 L 25.5 12 Z " /><path fill="rgb(0,0,0)" stroke="rgb(0,0,0)" stroke-width="1" opacity="0.32941176470588235" d="M 103.5 13 L 104.5 15 L 103.5 13 Z " /><path fill="rgb(0,0,0)" stroke="rgb(0,0,0)" stroke-width="1" opacity="0.32941176470588235" d="M 60.5 22 L 67 22.5 L 60.5 23 L 60.5 22 Z " /><path fill="rgb(0,0,0)" stroke="rgb(0,0,0)" stroke-width="1" opacity="0.32941176470588235" d="M 14.5 23 L 12.5 26 L 14.5 23 Z " /><path fill="rgb(0,0,0)" stroke="rgb(0,0,0)" stroke-width="1" opacity="0.32941176470588235" d="M 113.5 23 L 114.5 25 L 113.5 23 Z " /><path fill="rgb(0,0,0)" stroke="rgb(0,0,0)" stroke-width="1" opacity="0.32941176470588235" d="M 11.5 27 L 10.5 29 L 11.5 27 Z " /><path fill="rgb(0,0,0)" stroke="rgb(0,0,0)" stroke-width="1" opacity="0.32941176470588235" d="M 116.5 27 L 117.5 29 L 116.5 27 Z " /><path fill="rgb(0,0,0)" stroke="rgb(0,0,0)" stroke-width="1" opacity="0.32941176470588235" d="M 61.5 41 L 67 41.5 L 61.5 42 L 61.5 41 Z " /><path fill="rgb(0,0,0)" stroke="rgb(0,0,0)" stroke-width="1" opacity="0.32941176470588235" d="M 32.5 50 L 33 56.5 L 32 56.5 L 32.5 50 Z " /><path fill="rgb(0,0,0)" stroke="rgb(0,0,0)" stroke-width="1" opacity="0.32941176470588235" d="M 95.5 50 L 96 56.5 L 95 56.5 L 95.5 50 Z " /><path fill="rgb(0,0,0)" stroke="rgb(0,0,0)" stroke-width="1" opacity="0.32941176470588235" d="M 0.5 54 L 1 56.5 L 0 56.5 L 0.5 54 Z " /><path fill="rgb(0,0,0)" stroke="rgb(0,0,0)" stroke-width="1" opacity="0.32941176470588235" d="M 127.5 54 L 128 56.5 L 127 56.5 L 127.5 54 Z " /><path fill="rgb(0,0,0)" stroke="rgb(0,0,0)" stroke-width="1" opacity="0.32941176470588235" d="M 61.5 65 L 67 65.5 L 61.5 66 L 61.5 65 Z " /><path fill="rgb(0,0,0)" stroke="rgb(0,0,0)" stroke-width="1" opacity="0.32941176470588235" d="M 0.5 71 L 1 73.5 L 0 73.5 L 0.5 71 Z " /><path fill="rgb(0,0,0)" stroke="rgb(0,0,0)" stroke-width="1" opacity="0.32941176470588235" d="M 127.5 71 L 128 73.5 L 127 73.5 L 127.5 71 Z " /><path fill="rgb(0,0,0)" stroke="rgb(0,0,0)" stroke-width="1" opacity="0.32941176470588235" d="M 47.5 85 L 48.5 87 L 47.5 85 Z " /><path fill="rgb(0,0,0)" stroke="rgb(0,0,0)" stroke-width="1" opacity="0.32941176470588235" d="M 80.5 85 L 79.5 87 L 80.5 85 Z " /><path fill="rgb(0,0,0)" stroke="rgb(0,0,0)" stroke-width="1" opacity="0.32941176470588235" d="M 50.5 89 L 51.5 91 L 50.5 89 Z " /><path fill="rgb(0,0,0)" stroke="rgb(0,0,0)" stroke-width="1" opacity="0.32941176470588235" d="M 77.5 89 L 76.5 91 L 77.5 89 Z " /><path fill="rgb(0,0,0)" stroke="rgb(0,0,0)" stroke-width="1" opacity="0.32941176470588235" d="M 54.5 94 L 56.5 97 L 54.5 94 Z " /><path fill="rgb(0,0,0)" stroke="rgb(0,0,0)" stroke-width="1" opacity="0.32941176470588235" d="M 73.5 94 L 72.5 96 L 73.5 94 Z " /><path fill="rgb(0,0,0)" stroke="rgb(0,0,0)" stroke-width="1" opacity="0.32941176470588235" d="M 10.5 99 L 11.5 101 L 10.5 99 Z " /><path fill="rgb(0,0,0)" stroke="rgb(0,0,0)" stroke-width="1" opacity="0.32941176470588235" d="M 117.5 99 L 116.5 101 L 117.5 99 Z " /><path fill="rgb(0,0,0)" stroke="rgb(0,0,0)" stroke-width="1" opacity="0.32941176470588235" d="M 59.5 100 L 62.5 104 L 59.5 100 Z " /><path fill="rgb(0,0,0)" stroke="rgb(0,0,0)" stroke-width="1" opacity="0.32941176470588235" d="M 68.5 100 L 65.5 104 L 68.5 100 Z " /><path fill="rgb(0,0,0)" stroke="rgb(0,0,0)" stroke-width="1" opacity="0.32941176470588235" d="M 13.5 103 L 14.5 105 L 13.5 103 Z " /><path fill="rgb(0,0,0)" stroke="rgb(0,0,0)" stroke-width="1" opacity="0.32941176470588235" d="M 114.5 103 L 113.5 105 L 114.5 103 Z " /><path fill="rgb(0,0,0)" stroke="rgb(0,0,0)" stroke-width="1" opacity="0.32941176470588235" d="M 23.5 113 L 24.5 115 L 23.5 113 Z " /><path fill="rgb(0,0,0)" stroke="rgb(0,0,0)" stroke-width="1" opacity="0.32941176470588235" d="M 104.5 113 L 103.5 115 L 104.5 113 Z " /><path fill="rgb(0,0,0)" stroke="rgb(0,0,0)" stroke-width="1" opacity="0.32941176470588235" d="M 27.5 116 L 28.5 118 L 27.5 116 Z " /><path fill="rgb(0,0,0)" stroke="rgb(0,0,0)" stroke-width="1" opacity="0.32941176470588235" d="M 100.5 116 L 99.5 118 L 100.5 116 Z " /><path fill="rgb(0,0,0)" stroke="rgb(0,0,0)" stroke-width="1" opacity="0.32941176470588235" d="M 54.5 127 L 57 127.5 L 54.5 128 L 54.5 127 Z " /><path fill="rgb(0,0,0)" stroke="rgb(0,0,0)" stroke-width="1" opacity="0.32941176470588235" d="M 71.5 127 L 74 127.5 L 71.5 128 L 71.5 127 Z " /></svg>