<svg width="512" height="512" version="1.1" xmlns="http://www.w3.org/2000/svg" desc="Created with imagetracer.js version 1.2.6" ><path fill="rgb(234,234,234)" stroke="rgb(234,234,234)" stroke-width="1" opacity="1" d="M 190.5 142 L 189.5 144 L 190.5 142 Z " /><path fill="rgb(234,234,234)" stroke="rgb(234,234,234)" stroke-width="1" opacity="1" d="M 184.5 147 L 181.5 151 L 184.5 147 Z " /><path fill="rgb(234,234,234)" stroke="rgb(234,234,234)" stroke-width="1" opacity="1" d="M 327.5 147 L 331.5 152 L 327.5 147 Z " /><path fill="rgb(234,234,234)" stroke="rgb(234,234,234)" stroke-width="1" opacity="1" d="M 333.5 153 L 337.5 158 L 333.5 153 Z " /><path fill="rgb(234,234,234)" stroke="rgb(234,234,234)" stroke-width="1" opacity="1" d="M 177.5 154 L 174.5 158 L 177.5 154 Z " /><path fill="rgb(234,234,234)" stroke="rgb(234,234,234)" stroke-width="1" opacity="1" d="M 170.5 162 L 169.5 164 L 170.5 162 Z " /><path fill="rgb(234,234,234)" stroke="rgb(234,234,234)" stroke-width="1" opacity="1" d="M 341.5 162 L 342.5 164 L 341.5 162 Z " /><path fill="rgb(234,234,234)" stroke="rgb(234,234,234)" stroke-width="1" opacity="1" d="M 147.5 224 L 148 231.5 L 147 231.5 L 147.5 224 Z " /><path fill="rgb(234,234,234)" stroke="rgb(234,234,234)" stroke-width="1" opacity="1" d="M 364.5 225 L 365 231.5 L 364 231.5 L 364.5 225 Z " /><path fill="rgb(234,234,234)" stroke="rgb(234,234,234)" stroke-width="1" opacity="1" d="M 184.5 324 L 185.5 326 L 184.5 324 Z " /><path fill="rgb(234,234,234)" stroke="rgb(234,234,234)" stroke-width="1" opacity="1" d="M 187.5 328 L 188.5 330 L 187.5 328 Z " /><path fill="rgb(234,234,234)" stroke="rgb(234,234,234)" stroke-width="1" opacity="1" d="M 324.5 328 L 323.5 330 L 324.5 328 Z " /><path fill="rgb(234,234,234)" stroke="rgb(234,234,234)" stroke-width="1" opacity="1" d="M 191.5 333 L 193.5 336 L 191.5 333 Z " /><path fill="rgb(234,234,234)" stroke="rgb(234,234,234)" stroke-width="1" opacity="1" d="M 320.5 333 L 319.5 335 L 320.5 333 Z " /><path fill="rgb(234,234,234)" stroke="rgb(234,234,234)" stroke-width="1" opacity="1" d="M 196.5 339 L 199.5 343 L 196.5 339 Z " /><path fill="rgb(234,234,234)" stroke="rgb(234,234,234)" stroke-width="1" opacity="1" d="M 315.5 339 L 314.5 341 L 315.5 339 Z " /><path fill="rgb(234,234,234)" stroke="rgb(234,234,234)" stroke-width="1" opacity="1" d="M 308.5 347 L 298.5 358 L 308.5 347 Z " /><path fill="rgb(234,234,234)" stroke="rgb(234,234,234)" stroke-width="1" opacity="1" d="M 205.5 349 L 221.5 366 L 205.5 349 Z " /><path fill="rgb(234,234,234)" stroke="rgb(234,234,234)" stroke-width="1" opacity="1" d="M 295.5 360 L 288.5 368 L 295.5 360 Z " /><path fill="rgb(234,234,234)" stroke="rgb(234,234,234)" stroke-width="1" opacity="1" d="M 229.5 372 L 232.5 376 L 229.5 372 Z " /><path fill="rgb(234,234,234)" stroke="rgb(234,234,234)" stroke-width="1" opacity="1" d="M 281.5 373 L 279.5 376 L 281.5 373 Z " /><path fill="rgb(234,234,234)" stroke="rgb(234,234,234)" stroke-width="1" opacity="1" d="M 237.5 379 L 238.5 381 L 237.5 379 Z " /><path fill="rgb(234,234,234)" stroke="rgb(234,234,234)" stroke-width="1" opacity="1" d="M 274.5 379 L 273.5 381 L 274.5 379 Z " /><path fill="rgb(234,234,234)" stroke="rgb(234,234,234)" stroke-width="1" opacity="1" d="M 242.5 383 L 243.5 385 L 242.5 383 Z " /><path fill="rgb(234,234,234)" stroke="rgb(234,234,234)" stroke-width="1" opacity="1" d="M 264.5 387 L 263.5 389 L 264.5 387 Z " /><path fill="rgb(0,0,0)" stroke="rgb(0,0,0)" stroke-width="1" opacity="0" d="M 0 0 L 138 0.5 Q 120.2 3.7 112 16.5 Q 106.9 23.4 105 33.5 L 105 478.5 Q 108.6 496.4 121.5 505 Q 128 510 138 511.5 L 0 512 L 0 0 Z " /><path fill="rgb(0,0,0)" stroke="rgb(0,0,0)" stroke-width="1" opacity="0" d="M 374.5 0 L 511.5 0 L 512 0.5 L 512 512 L 374 511.5 Q 391.8 508.3 400 495.5 Q 405.1 488.6 407 478.5 L 407 270.5 L 403.5 265 L 397 263 L 397 232.5 L 399.5 232 L 405 228.5 Q 407.8 225.8 407 219.5 L 403.5 214 L 397 212 L 397 174.5 L 399.5 174 L 405 170.5 L 407 166.5 L 407 33.5 Q 403.4 15.6 390.5 7 Q 385.1 1.4 374.5 1 L 374.5 0 Z " /><path fill="rgb(0,0,0)" stroke="rgb(0,0,0)" stroke-width="1" opacity="0.8196078431372549" d="M 138.5 0 L 143 0.5 L 138.5 1 L 138.5 0 Z " /><path fill="rgb(0,0,0)" stroke="rgb(0,0,0)" stroke-width="1" opacity="0.8196078431372549" d="M 369.5 0 L 374 0.5 L 369.5 1 L 369.5 0 Z " /><path fill="rgb(0,0,0)" stroke="rgb(0,0,0)" stroke-width="1" opacity="0.8196078431372549" d="M 124.5 5 L 123.5 7 L 124.5 5 Z " /><path fill="rgb(0,0,0)" stroke="rgb(0,0,0)" stroke-width="1" opacity="0.8196078431372549" d="M 387.5 5 L 388.5 7 L 387.5 5 Z " /><path fill="rgb(0,0,0)" stroke="rgb(0,0,0)" stroke-width="1" opacity="0.8196078431372549" d="M 121.5 7 L 120.5 9 L 121.5 7 Z " /><path fill="rgb(0,0,0)" stroke="rgb(0,0,0)" stroke-width="1" opacity="0.8196078431372549" d="M 390.5 7 L 391.5 9 L 390.5 7 Z " /><path fill="rgb(0,0,0)" stroke="rgb(0,0,0)" stroke-width="1" opacity="0.8196078431372549" d="M 113.5 15 L 112.5 17 L 113.5 15 Z " /><path fill="rgb(0,0,0)" stroke="rgb(0,0,0)" stroke-width="1" opacity="0.8196078431372549" d="M 398.5 15 L 399.5 17 L 398.5 15 Z " /><path fill="rgb(0,0,0)" stroke="rgb(0,0,0)" stroke-width="1" opacity="0.8196078431372549" d="M 111.5 18 L 110.5 20 L 111.5 18 Z " /><path fill="rgb(0,0,0)" stroke="rgb(0,0,0)" stroke-width="1" opacity="0.8196078431372549" d="M 400.5 18 L 401.5 20 L 400.5 18 Z " /><path fill="rgb(0,0,0)" stroke="rgb(0,0,0)" stroke-width="1" opacity="0.8196078431372549" d="M 105.5 33 L 106 37.5 L 105 37.5 L 105.5 33 Z " /><path fill="rgb(0,0,0)" stroke="rgb(0,0,0)" stroke-width="1" opacity="0.8196078431372549" d="M 406.5 33 L 407 37.5 L 406 37.5 L 406.5 33 Z " /><path fill="rgb(0,0,0)" stroke="rgb(0,0,0)" stroke-width="1" opacity="0.8196078431372549" d="M 404.5 170 L 403.5 172 L 404.5 170 Z " /><path fill="rgb(0,0,0)" stroke="rgb(0,0,0)" stroke-width="1" opacity="0.8196078431372549" d="M 403.5 214 L 404.5 216 L 403.5 214 Z " /><path fill="rgb(0,0,0)" stroke="rgb(0,0,0)" stroke-width="1" opacity="0.8196078431372549" d="M 404.5 228 L 403.5 230 L 404.5 228 Z " /><path fill="rgb(0,0,0)" stroke="rgb(0,0,0)" stroke-width="1" opacity="0.8196078431372549" d="M 403.5 265 L 404.5 267 L 403.5 265 Z " /><path fill="rgb(0,0,0)" stroke="rgb(0,0,0)" stroke-width="1" opacity="0.8196078431372549" d="M 105.5 474 L 106 478.5 L 105 478.5 L 105.5 474 Z " /><path fill="rgb(0,0,0)" stroke="rgb(0,0,0)" stroke-width="1" opacity="0.8196078431372549" d="M 406.5 474 L 407 478.5 L 406 478.5 L 406.5 474 Z " /><path fill="rgb(0,0,0)" stroke="rgb(0,0,0)" stroke-width="1" opacity="0.8196078431372549" d="M 110.5 492 L 111.5 494 L 110.5 492 Z " /><path fill="rgb(0,0,0)" stroke="rgb(0,0,0)" stroke-width="1" opacity="0.8196078431372549" d="M 401.5 492 L 400.5 494 L 401.5 492 Z " /><path fill="rgb(0,0,0)" stroke="rgb(0,0,0)" stroke-width="1" opacity="0.8196078431372549" d="M 112.5 495 L 113.5 497 L 112.5 495 Z " /><path fill="rgb(0,0,0)" stroke="rgb(0,0,0)" stroke-width="1" opacity="0.8196078431372549" d="M 399.5 495 L 398.5 497 L 399.5 495 Z " /><path fill="rgb(0,0,0)" stroke="rgb(0,0,0)" stroke-width="1" opacity="0.8196078431372549" d="M 120.5 503 L 121.5 505 L 120.5 503 Z " /><path fill="rgb(0,0,0)" stroke="rgb(0,0,0)" stroke-width="1" opacity="0.8196078431372549" d="M 391.5 503 L 390.5 505 L 391.5 503 Z " /><path fill="rgb(0,0,0)" stroke="rgb(0,0,0)" stroke-width="1" opacity="0.8196078431372549" d="M 123.5 505 L 124.5 507 L 123.5 505 Z " /><path fill="rgb(0,0,0)" stroke="rgb(0,0,0)" stroke-width="1" opacity="0.8196078431372549" d="M 388.5 505 L 387.5 507 L 388.5 505 Z " /><path fill="rgb(0,0,0)" stroke="rgb(0,0,0)" stroke-width="1" opacity="0.8196078431372549" d="M 138.5 511 L 143 511.5 L 138.5 512 L 138.5 511 Z " /><path fill="rgb(0,0,0)" stroke="rgb(0,0,0)" stroke-width="1" opacity="0.8196078431372549" d="M 369.5 511 L 374 511.5 L 369.5 512 L 369.5 511 Z " /><path fill="rgb(0,0,0)" stroke="rgb(0,0,0)" stroke-width="1" opacity="1" d="M 143.5 0 L 368.5 0 L 382.5 3 Q 391.9 7.1 398 14.5 L 404 24.5 L 407 38.5 L 407 164.5 L 402.5 172 L 395.5 174 L 388 168.5 L 387 165.5 L 387 94 L 125 94 L 125 418 L 387 418 L 387 271.5 L 392.5 264 L 397.5 263 L 405 267.5 L 407 272.5 L 407 473.5 L 404 487.5 Q 399.9 496.9 392.5 503 L 382.5 509 L 368.5 512 L 143.5 512 L 129.5 509 Q 120.1 504.9 114 497.5 L 108 487.5 L 105 473.5 L 105 38.5 L 108 24.5 Q 112.1 15.1 119.5 9 L 129.5 3 L 143.5 0 Z M 141 20 L 134 23 Q 127 27 125 36 L 125 74 L 126 74 L 387 74 L 387 36 L 384 29 Q 380 22 372 20 L 141 20 Z M 125 438 L 125 477 L 128 484 Q 132 490 141 492 L 372 492 L 379 489 Q 385 485 387 477 L 387 439 L 387 438 L 125 438 Z " /><path fill="rgb(0,0,0)" stroke="rgb(0,0,0)" stroke-width="1" opacity="1" d="M 220.5 37 L 291.5 37 L 298 41.5 L 299 50.5 L 294.5 56 L 291.5 57 L 220.5 57 L 214 52.5 L 213 43.5 L 217.5 38 L 220.5 37 Z " /><path fill="rgb(0,0,0)" stroke="rgb(0,0,0)" stroke-width="1" opacity="1" d="M 249.5 121 L 272.5 122 L 299.5 130 Q 322.7 140.3 338 158.5 Q 351.5 174 359 195.5 L 364 220.5 L 364 237.5 L 363 238.5 L 362 252.5 L 357 270.5 L 342 302.5 Q 319.2 339.7 287.5 368 L 263.5 388 Q 260.5 391 254.5 391 Q 226.5 373 205 348.5 Q 180.4 322.6 163 289.5 L 155 270.5 L 150 252.5 L 149 238.5 L 148 237.5 L 148 220.5 L 153 195.5 L 162 175.5 Q 171.5 159 185.5 147 Q 197.2 136.7 212.5 130 L 234.5 123 L 248.5 122 L 249.5 121 Z M 247 141 L 232 144 L 221 148 L 199 162 Q 187 172 179 186 L 171 205 L 168 220 L 168 240 Q 171 241 169 247 L 177 273 Q 195 311 224 340 L 256 368 L 277 351 Q 303 326 323 296 L 337 268 L 344 240 L 344 220 L 341 205 Q 335 185 323 172 Q 309 155 287 146 L 266 141 L 247 141 Z " /><path fill="rgb(0,0,0)" stroke="rgb(0,0,0)" stroke-width="1" opacity="1" d="M 255.5 159 Q 259.3 161.7 267.5 160 L 281.5 164 Q 298.3 170.7 309 183.5 Q 317.3 192.7 322 205.5 L 325 217.5 L 326 233.5 L 323 249.5 L 317 263.5 Q 309.9 275.4 299.5 284 Q 288.6 292.6 273.5 297 L 262.5 298 L 261.5 299 L 250.5 299 L 249.5 298 L 238.5 297 L 221.5 290 Q 210.2 283.3 202 273.5 Q 186.5 257 186 225.5 L 189 208.5 L 193 198.5 Q 199.3 185.8 209.5 177 Q 218.5 169 230.5 164 L 239.5 161 L 254.5 160 L 255.5 159 Z M 252 179 L 239 182 L 224 191 Q 210 202 206 224 L 207 241 Q 210 253 217 261 Q 228 275 250 279 L 263 279 L 272 277 L 288 268 Q 296 261 301 252 L 306 235 L 306 224 L 304 215 Q 300 204 294 197 Q 286 187 274 182 L 261 179 L 252 179 Z " /><path fill="rgb(0,0,0)" stroke="rgb(0,0,0)" stroke-width="1" opacity="1" d="M 395.5 212 Q 402.1 212.4 405 216.5 L 407 222.5 L 402.5 230 L 395.5 232 L 388 226.5 L 387 220.5 L 392.5 213 L 395.5 212 Z " /><path fill="rgb(0,0,0)" stroke="rgb(0,0,0)" stroke-width="1" opacity="1" d="M 243.5 455 L 268.5 455 L 275 460.5 L 276 467.5 L 270.5 474 L 268.5 475 L 243.5 475 L 237 469.5 L 236 462.5 L 241.5 456 L 243.5 455 Z " /><path fill="rgb(141,147,168)" stroke="rgb(141,147,168)" stroke-width="1" opacity="1" d="M 140.5 20 L 371.5 20 Q 379.9 22.1 384 28.5 L 387 35.5 L 387 74 L 125.5 74 L 125 73.5 L 125 35.5 Q 127.2 27.2 133.5 23 L 140.5 20 Z M 220 37 L 218 38 Q 213 41 212 47 L 214 53 L 220 57 L 293 57 L 295 56 Q 299 53 300 48 L 298 42 L 293 37 L 220 37 Z " /><path fill="rgb(141,147,168)" stroke="rgb(141,147,168)" stroke-width="1" opacity="1" d="M 243.5 121 L 247 121.5 L 243.5 122 L 243.5 121 Z " /><path fill="rgb(141,147,168)" stroke="rgb(141,147,168)" stroke-width="1" opacity="1" d="M 265.5 121 L 269 121.5 L 265.5 122 L 265.5 121 Z " /><path fill="rgb(141,147,168)" stroke="rgb(141,147,168)" stroke-width="1" opacity="1" d="M 192.5 141 L 191.5 143 L 192.5 141 Z " /><path fill="rgb(141,147,168)" stroke="rgb(141,147,168)" stroke-width="1" opacity="1" d="M 319.5 141 L 320.5 143 L 319.5 141 Z " /><path fill="rgb(141,147,168)" stroke="rgb(141,147,168)" stroke-width="1" opacity="1" d="M 188.5 144 L 187.5 146 L 188.5 144 Z " /><path fill="rgb(141,147,168)" stroke="rgb(141,147,168)" stroke-width="1" opacity="1" d="M 323.5 144 L 325.5 147 L 323.5 144 Z " /><path fill="rgb(141,147,168)" stroke="rgb(141,147,168)" stroke-width="1" opacity="1" d="M 180.5 151 L 178.5 154 L 180.5 151 Z " /><path fill="rgb(141,147,168)" stroke="rgb(141,147,168)" stroke-width="1" opacity="1" d="M 173.5 159 L 171.5 162 L 173.5 159 Z " /><path fill="rgb(141,147,168)" stroke="rgb(141,147,168)" stroke-width="1" opacity="1" d="M 339.5 160 L 340.5 162 L 339.5 160 Z " /><path fill="rgb(141,147,168)" stroke="rgb(141,147,168)" stroke-width="1" opacity="1" d="M 342.5 164 L 343.5 166 L 342.5 164 Z " /><path fill="rgb(141,147,168)" stroke="rgb(141,147,168)" stroke-width="1" opacity="1" d="M 388.5 169 L 391.5 173 L 388.5 169 Z " /><path fill="rgb(141,147,168)" stroke="rgb(141,147,168)" stroke-width="1" opacity="1" d="M 253.5 179 L 259 179.5 L 253.5 180 L 253.5 179 Z " /><path fill="rgb(141,147,168)" stroke="rgb(141,147,168)" stroke-width="1" opacity="1" d="M 245.5 180 L 248 180.5 L 245.5 181 L 245.5 180 Z " /><path fill="rgb(141,147,168)" stroke="rgb(141,147,168)" stroke-width="1" opacity="1" d="M 264.5 180 L 267 180.5 L 264.5 181 L 264.5 180 Z " /><path fill="rgb(141,147,168)" stroke="rgb(141,147,168)" stroke-width="1" opacity="1" d="M 227.5 188 L 226.5 190 L 227.5 188 Z " /><path fill="rgb(141,147,168)" stroke="rgb(141,147,168)" stroke-width="1" opacity="1" d="M 284.5 188 L 285.5 190 L 284.5 188 Z " /><path fill="rgb(141,147,168)" stroke="rgb(141,147,168)" stroke-width="1" opacity="1" d="M 222.5 192 L 218.5 197 L 222.5 192 Z " /><path fill="rgb(141,147,168)" stroke="rgb(141,147,168)" stroke-width="1" opacity="1" d="M 289.5 192 L 293.5 197 L 289.5 192 Z " /><path fill="rgb(141,147,168)" stroke="rgb(141,147,168)" stroke-width="1" opacity="1" d="M 216.5 199 L 215.5 201 L 216.5 199 Z " /><path fill="rgb(141,147,168)" stroke="rgb(141,147,168)" stroke-width="1" opacity="1" d="M 295.5 199 L 296.5 201 L 295.5 199 Z " /><path fill="rgb(141,147,168)" stroke="rgb(141,147,168)" stroke-width="1" opacity="1" d="M 391.5 213 L 388.5 217 L 391.5 213 Z " /><path fill="rgb(141,147,168)" stroke="rgb(141,147,168)" stroke-width="1" opacity="1" d="M 148.5 215 L 149 218.5 L 148 218.5 L 148.5 215 Z " /><path fill="rgb(141,147,168)" stroke="rgb(141,147,168)" stroke-width="1" opacity="1" d="M 363.5 215 L 364 218.5 L 363 218.5 L 363.5 215 Z " /><path fill="rgb(141,147,168)" stroke="rgb(141,147,168)" stroke-width="1" opacity="1" d="M 206.5 224 L 207 234.5 L 206 234.5 L 206.5 224 Z " /><path fill="rgb(141,147,168)" stroke="rgb(141,147,168)" stroke-width="1" opacity="1" d="M 305.5 224 L 306 234.5 L 305 234.5 L 305.5 224 Z " /><path fill="rgb(141,147,168)" stroke="rgb(141,147,168)" stroke-width="1" opacity="1" d="M 388.5 227 L 391.5 231 L 388.5 227 Z " /><path fill="rgb(141,147,168)" stroke="rgb(141,147,168)" stroke-width="1" opacity="1" d="M 148.5 239 L 149 242.5 L 148 242.5 L 148.5 239 Z " /><path fill="rgb(141,147,168)" stroke="rgb(141,147,168)" stroke-width="1" opacity="1" d="M 363.5 239 L 364 242.5 L 363 242.5 L 363.5 239 Z " /><path fill="rgb(141,147,168)" stroke="rgb(141,147,168)" stroke-width="1" opacity="1" d="M 149.5 247 L 150 249.5 L 149 249.5 L 149.5 247 Z " /><path fill="rgb(141,147,168)" stroke="rgb(141,147,168)" stroke-width="1" opacity="1" d="M 362.5 247 L 363 249.5 L 362 249.5 L 362.5 247 Z " /><path fill="rgb(141,147,168)" stroke="rgb(141,147,168)" stroke-width="1" opacity="1" d="M 214.5 256 L 215.5 258 L 214.5 256 Z " /><path fill="rgb(141,147,168)" stroke="rgb(141,147,168)" stroke-width="1" opacity="1" d="M 297.5 256 L 296.5 258 L 297.5 256 Z " /><path fill="rgb(141,147,168)" stroke="rgb(141,147,168)" stroke-width="1" opacity="1" d="M 217.5 260 L 220.5 264 L 217.5 260 Z " /><path fill="rgb(141,147,168)" stroke="rgb(141,147,168)" stroke-width="1" opacity="1" d="M 294.5 260 L 287.5 268 L 294.5 260 Z " /><path fill="rgb(141,147,168)" stroke="rgb(141,147,168)" stroke-width="1" opacity="1" d="M 391.5 264 L 388.5 268 L 391.5 264 Z " /><path fill="rgb(141,147,168)" stroke="rgb(141,147,168)" stroke-width="1" opacity="1" d="M 222.5 265 L 224.5 268 L 222.5 265 Z " /><path fill="rgb(141,147,168)" stroke="rgb(141,147,168)" stroke-width="1" opacity="1" d="M 227.5 269 L 228.5 271 L 227.5 269 Z " /><path fill="rgb(141,147,168)" stroke="rgb(141,147,168)" stroke-width="1" opacity="1" d="M 284.5 269 L 283.5 271 L 284.5 269 Z " /><path fill="rgb(141,147,168)" stroke="rgb(141,147,168)" stroke-width="1" opacity="1" d="M 250.5 278 L 255 278.5 L 250.5 279 L 250.5 278 Z " /><path fill="rgb(141,147,168)" stroke="rgb(141,147,168)" stroke-width="1" opacity="1" d="M 257.5 278 L 262 278.5 L 257.5 279 L 257.5 278 Z " /><path fill="rgb(141,147,168)" stroke="rgb(141,147,168)" stroke-width="1" opacity="1" d="M 172.5 306 L 173.5 308 L 172.5 306 Z " /><path fill="rgb(141,147,168)" stroke="rgb(141,147,168)" stroke-width="1" opacity="1" d="M 180.5 318 L 181.5 320 L 180.5 318 Z " /><path fill="rgb(141,147,168)" stroke="rgb(141,147,168)" stroke-width="1" opacity="1" d="M 329.5 321 L 328.5 323 L 329.5 321 Z " /><path fill="rgb(141,147,168)" stroke="rgb(141,147,168)" stroke-width="1" opacity="1" d="M 326.5 325 L 325.5 327 L 326.5 325 Z " /><path fill="rgb(141,147,168)" stroke="rgb(141,147,168)" stroke-width="1" opacity="1" d="M 186.5 326 L 187.5 328 L 186.5 326 Z " /><path fill="rgb(141,147,168)" stroke="rgb(141,147,168)" stroke-width="1" opacity="1" d="M 189.5 330 L 190.5 332 L 189.5 330 Z " /><path fill="rgb(141,147,168)" stroke="rgb(141,147,168)" stroke-width="1" opacity="1" d="M 322.5 330 L 321.5 332 L 322.5 330 Z " /><path fill="rgb(141,147,168)" stroke="rgb(141,147,168)" stroke-width="1" opacity="1" d="M 318.5 335 L 317.5 337 L 318.5 335 Z " /><path fill="rgb(141,147,168)" stroke="rgb(141,147,168)" stroke-width="1" opacity="1" d="M 194.5 336 L 195.5 338 L 194.5 336 Z " /><path fill="rgb(141,147,168)" stroke="rgb(141,147,168)" stroke-width="1" opacity="1" d="M 313.5 341 L 310.5 345 L 313.5 341 Z " /><path fill="rgb(141,147,168)" stroke="rgb(141,147,168)" stroke-width="1" opacity="1" d="M 200.5 343 L 203.5 347 L 200.5 343 Z " /><path fill="rgb(141,147,168)" stroke="rgb(141,147,168)" stroke-width="1" opacity="1" d="M 297.5 358 L 296.5 360 L 297.5 358 Z " /><path fill="rgb(141,147,168)" stroke="rgb(141,147,168)" stroke-width="1" opacity="1" d="M 225.5 368 L 228.5 372 L 225.5 368 Z " /><path fill="rgb(141,147,168)" stroke="rgb(141,147,168)" stroke-width="1" opacity="1" d="M 285.5 369 L 282.5 373 L 285.5 369 Z " /><path fill="rgb(141,147,168)" stroke="rgb(141,147,168)" stroke-width="1" opacity="1" d="M 234.5 376 L 236.5 379 L 234.5 376 Z " /><path fill="rgb(141,147,168)" stroke="rgb(141,147,168)" stroke-width="1" opacity="1" d="M 277.5 376 L 275.5 379 L 277.5 376 Z " /><path fill="rgb(141,147,168)" stroke="rgb(141,147,168)" stroke-width="1" opacity="1" d="M 240.5 381 L 241.5 383 L 240.5 381 Z " /><path fill="rgb(141,147,168)" stroke="rgb(141,147,168)" stroke-width="1" opacity="1" d="M 271.5 381 L 269.5 384 L 271.5 381 Z " /><path fill="rgb(141,147,168)" stroke="rgb(141,147,168)" stroke-width="1" opacity="1" d="M 245.5 385 L 246.5 387 L 245.5 385 Z " /><path fill="rgb(141,147,168)" stroke="rgb(141,147,168)" stroke-width="1" opacity="1" d="M 266.5 385 L 265.5 387 L 266.5 385 Z " /><path fill="rgb(141,147,168)" stroke="rgb(141,147,168)" stroke-width="1" opacity="1" d="M 249.5 388 L 250.5 390 L 249.5 388 Z " /><path fill="rgb(141,147,168)" stroke="rgb(141,147,168)" stroke-width="1" opacity="1" d="M 262.5 388 L 261.5 390 L 262.5 388 Z " /><path fill="rgb(141,147,168)" stroke="rgb(141,147,168)" stroke-width="1" opacity="1" d="M 125 438 L 386.5 438 L 387 438.5 L 387 476.5 Q 384.9 483.9 379.5 488 L 371.5 492 L 140.5 492 Q 132.2 489.9 128 483.5 L 125 476.5 L 125 438 Z M 244 455 L 240 457 L 236 463 Q 235 469 238 472 L 244 475 L 269 475 L 273 473 L 276 468 Q 277 461 274 459 L 269 455 L 244 455 Z " /><path fill="rgb(251,76,79)" stroke="rgb(251,76,79)" stroke-width="1" opacity="1" d="M 246.5 141 L 265.5 141 L 286.5 146 Q 308.8 154.7 323 171.5 Q 335.1 184.9 341 204.5 L 344 219.5 L 344 239.5 L 337 267.5 L 323 295.5 Q 303 326.5 276.5 351 L 255.5 368 L 224 339.5 Q 195.2 311.3 177 272.5 L 169 246.5 Q 170.5 241 168 239.5 L 168 219.5 L 171 204.5 L 179 185.5 Q 186.8 171.8 198.5 162 L 220.5 148 L 231.5 144 L 246.5 141 Z M 256 159 L 255 160 L 240 161 L 231 164 Q 219 169 210 177 Q 199 186 193 199 L 189 209 L 186 226 Q 186 257 202 274 Q 210 283 222 290 L 239 297 L 250 298 L 251 299 L 262 299 L 263 298 L 274 297 Q 289 293 300 284 Q 310 275 317 264 L 323 250 L 326 234 L 325 218 L 322 206 Q 317 193 309 184 Q 298 171 282 164 L 268 160 Q 259 162 256 159 Z " /><path fill="rgb(251,76,79)" stroke="rgb(251,76,79)" stroke-width="1" opacity="1" d="M 223.5 366 L 224.5 368 L 223.5 366 Z " /><path fill="rgb(251,76,79)" stroke="rgb(251,76,79)" stroke-width="1" opacity="1" d="M 239.5 457 L 238.5 459 L 239.5 457 Z " /><path fill="rgb(251,76,79)" stroke="rgb(251,76,79)" stroke-width="1" opacity="1" d="M 272.5 457 L 273.5 459 L 272.5 457 Z " /><path fill="rgb(251,76,79)" stroke="rgb(251,76,79)" stroke-width="1" opacity="1" d="M 238.5 471 L 239.5 473 L 238.5 471 Z " /><path fill="rgb(251,76,79)" stroke="rgb(251,76,79)" stroke-width="1" opacity="1" d="M 273.5 471 L 272.5 473 L 273.5 471 Z " /><path fill="rgb(255,255,255)" stroke="rgb(255,255,255)" stroke-width="1" opacity="1" d="M 125 94 L 386.5 94 L 387 94.5 L 387 167.5 L 391.5 173 L 397 174 L 397 211.5 L 393.5 212 L 388 216.5 L 387 225.5 L 391.5 231 L 397 232 L 397 262.5 L 393.5 263 L 388 267.5 L 387 269.5 L 387 418 L 125 418 L 125 94 Z M 243 121 L 224 125 L 209 131 L 185 147 Q 167 162 157 184 L 150 204 L 148 215 L 148 224 L 147 225 L 148 245 L 150 256 L 159 283 Q 177 321 205 350 Q 226 373 253 391 Q 260 392 264 389 L 289 368 Q 321 339 344 301 Q 353 285 359 267 L 363 251 L 364 233 L 365 232 L 363 209 L 358 191 Q 350 172 338 158 Q 320 137 292 126 L 270 121 L 243 121 Z " /><path fill="rgb(255,255,255)" stroke="rgb(255,255,255)" stroke-width="1" opacity="1" d="M 249.5 180 L 262.5 180 L 271.5 182 Q 285.4 187.1 294 197.5 L 303 213.5 L 305 221.5 L 305 236.5 Q 300.8 257.3 286.5 268 L 268.5 277 Q 260.2 279.7 247.5 278 Q 227.6 273.4 217 259.5 L 208 241.5 L 207 236.5 L 207 221.5 Q 211 201.5 224.5 191 Q 234 182.5 249.5 180 Z " /></svg>